<svg xmlns="http://www.w3.org/2000/svg" width="24.473" height="23.863" viewBox="0 0 24.473 23.863">
  <g id="adobe-xd" transform="translate(0.05 0.05)">
    <path id="Exclusion_1" data-name="Exclusion 1" d="M-570.549-304.158H-593V-326h22.451v21.841Zm-6.523-14.317a3.659,3.659,0,0,0-2.788,1.154,4.163,4.163,0,0,0-1.016,2.833c0,2.442,1.336,3.9,3.573,3.9a5.759,5.759,0,0,0,2.46-.557c.058-.029.058-.039.058-.106a6.735,6.735,0,0,1-.049-.941v-8.779c0-.046-.016-.077-.1-.077h-1.547a.1.1,0,0,0-.1.1v2.5A4.124,4.124,0,0,0-577.072-318.475Zm-8.221,3.728h.019c.515,1.092,1.194,2.526,1.883,3.947a.187.187,0,0,0,.2.125h1.671a.076.076,0,0,0,.071-.038.116.116,0,0,0-.013-.116l-2.689-5.215,2.535-4.87a.115.115,0,0,0,.015-.112.079.079,0,0,0-.073-.033h-1.546c-.095,0-.125.048-.171.122-.16.342-.32.683-.48,1.024-.429.912-.872,1.856-1.28,2.784h-.02c-.43-.961-.89-1.923-1.335-2.854-.155-.325-.309-.646-.462-.969-.03-.09-.082-.106-.173-.106h-1.651a.092.092,0,0,0-.083.048.091.091,0,0,0,.016.1l2.545,5.033-2.632,5.063a.093.093,0,0,0-.022.1.081.081,0,0,0,.08.038h1.595a.187.187,0,0,0,.173-.105c.629-1.3,1.272-2.723,1.825-3.957Zm8.049,2.66c-.71,0-1.9-.322-1.9-2.479a2.815,2.815,0,0,1,.555-1.819,1.832,1.832,0,0,1,1.462-.659,1.324,1.324,0,0,1,.558.1h-.01v4.756A1.8,1.8,0,0,1-577.245-312.087Z" transform="translate(593.961 326.961)" fill="#fdfdfd"/>
    <path id="Path_2" data-name="Path 2" d="M0,0V23.763H24.373V0ZM1.016,1.016H23.357V22.748H1.016Z" fill="none" stroke="#000" stroke-width="0.1"/>
    <path id="Path_3" data-name="Path 3" d="M57.607,59.611a1.319,1.319,0,0,0-.557-.1c-1.21,0-2.017.932-2.017,2.478,0,1.767.826,2.478,1.9,2.478a1.812,1.812,0,0,0,.663-.106V59.611ZM53.3,62.07a3.72,3.72,0,0,1,3.8-3.986,4.26,4.26,0,0,1,.5.019v-2.5a.1.1,0,0,1,.1-.1h1.546c.077,0,.1.029.1.077v8.779a6.841,6.841,0,0,0,.048.941c0,.067,0,.077-.058.106a5.722,5.722,0,0,1-2.459.557c-2.084,0-3.573-1.287-3.573-3.9Zm-3.275-1.556,2.69,5.216c.048.077.019.154-.058.154H50.988a.188.188,0,0,1-.2-.125q-.922-1.9-1.883-3.948h-.019c-.576,1.287-1.21,2.69-1.825,3.957a.184.184,0,0,1-.173.106H45.292c-.1,0-.106-.077-.058-.134l2.632-5.062-2.545-5.033a.085.085,0,0,1,.067-.144H47.04c.1,0,.144.019.173.106.605,1.278,1.22,2.536,1.8,3.823h.019c.557-1.268,1.172-2.545,1.758-3.8.048-.077.077-.125.173-.125h1.546c.077,0,.106.058.058.144Z" transform="translate(-40.218 -49.598)" fill="none" stroke="#000" stroke-width="0.1"/>
  </g>
</svg>
