<svg xmlns="http://www.w3.org/2000/svg" width="22.76" height="24.079" viewBox="0 0 22.76 24.079">
  <path id="Jquery" d="M14.455,16.563l.038.018.068.033c.086.041.173.082.261.121l.055.025q.151.066.3.127l.074.029c.095.037.191.073.287.107l.036.012c.106.037.213.071.32.1l.078.023a3.111,3.111,0,0,0,.331.094c7.174,1.308,9.258-4.311,9.258-4.311-1.75,2.28-4.857,2.882-7.8,2.212-.111-.025-.22-.06-.329-.092l-.082-.025q-.159-.049-.316-.1l-.043-.016c-.094-.033-.187-.068-.279-.1l-.078-.031q-.152-.06-.3-.125l-.06-.027c-.085-.039-.17-.078-.254-.118l-.074-.035c-.066-.032-.131-.067-.2-.1l-.131-.069c-.079-.043-.158-.087-.235-.132l-.079-.044c-.1-.061-.206-.124-.307-.188l-.083-.055c-.073-.047-.146-.1-.218-.145l-.07-.049q-.1-.074-.206-.149l-.091-.069c-.062-.048-.125-.1-.186-.145l-.083-.067c-.078-.064-.155-.129-.232-.2l-.025-.021c-.083-.072-.164-.147-.244-.221l-.069-.066c-.059-.056-.118-.113-.175-.172l-.069-.069q-.11-.112-.215-.227l-.011-.011c-.074-.081-.147-.164-.218-.248l-.057-.068c-.053-.064-.106-.129-.157-.194l-.058-.071c-.062-.08-.122-.16-.181-.241a7.562,7.562,0,0,1-.915-7.828L10.278,5.1a7.04,7.04,0,0,0-.166,7.172l.083.161.053.1.033.059.059.106q.053.093.108.185l.062.1c.041.066.083.131.126.2l.053.083c.059.088.12.176.182.262l.005.007.031.041c.054.074.11.148.166.22l.062.079c.05.063.1.126.153.188l.058.07c.07.082.141.164.213.244l0,0,.008.009c.071.077.143.153.217.228l.069.07c.057.057.115.114.173.17l.071.067c.078.073.157.145.237.216l0,0,.041.035c.071.061.143.122.216.182l.089.071q.089.071.18.141l.1.073q.1.074.2.145l.074.052.02.014c.064.044.13.087.2.129l.085.057c.1.064.2.127.307.188l.085.048c.076.044.152.087.23.129l.127.066Zm.725-7.221a3.768,3.768,0,0,0,.552.69c.077.085.158.168.241.25l.064.062c.08.078.162.154.246.228l.01.009,0,0c.093.082.189.16.287.237l.065.051c.1.075.2.149.3.219l.009.006.137.09.065.043c.073.047.147.093.223.136l.031.018c.065.037.131.074.2.11l.07.037.138.071.021.009c.095.047.19.091.287.134l.063.026c.078.033.156.065.235.1l.1.037c.072.027.144.051.216.075l.1.031a2.392,2.392,0,0,0,.313.09c5.539.918,6.818-3.347,6.818-3.347A5.262,5.262,0,0,1,20.2,10.589q-.159-.042-.314-.091l-.094-.03q-.11-.036-.219-.076l-.1-.037q-.119-.046-.236-.1l-.064-.027q-.147-.064-.289-.134l-.145-.074-.084-.043c-.062-.033-.123-.068-.183-.1l-.044-.025c-.075-.044-.149-.089-.222-.135l-.067-.045L18,9.578c-.1-.07-.2-.144-.3-.219l-.067-.053a6.678,6.678,0,0,1-2.262-3.224,5,5,0,0,1,.39-4.013l-.876,1.238a5.158,5.158,0,0,0-.178,5.243,6.811,6.811,0,0,0,.474.792Zm5.838-1.91.138.048.061.019a1.739,1.739,0,0,0,.2.057,3.417,3.417,0,0,0,4.109-1.887c-.727,1.046-1.948,1.3-3.446.934-.118-.029-.248-.071-.363-.112a4.5,4.5,0,0,1-.43-.179,4.451,4.451,0,0,1-.755-.461,3.679,3.679,0,0,1-1.3-4.539l-.473.652A3.228,3.228,0,0,0,18.5,5.079,4.387,4.387,0,0,0,21.018,7.432ZM18.066,19.953h-.829a.109.109,0,0,0-.1.082L16.841,21.4l-.294,1.362a.109.109,0,0,1-.1.082h-.587c-.581,0-.514-.4-.395-.952l0-.017.013-.069,0-.013.026-.141.028-.151.03-.154.134-.654.134-.654a.066.066,0,0,0-.067-.082h-.851a.108.108,0,0,0-.1.082l-.183.868-.183.868h0l-.017.081c-.211.962-.155,1.88.991,1.909h1.832a.109.109,0,0,0,.1-.082l.388-1.823.388-1.823A.065.065,0,0,0,18.066,19.953Zm-8.882-.01H8.273a.11.11,0,0,0-.1.082l-.086.381L8,20.788a.064.064,0,0,0,.065.082h.918a.109.109,0,0,0,.1-.082l.083-.381.083-.381A.065.065,0,0,0,9.184,19.944ZM8.92,21.13H8a.11.11,0,0,0-.1.082l-.129.571-.129.571-.036.164-.124.583-.124.583c-.01.045-.029.118-.044.161,0,0-.172.51-.46.5H6.818l-.249,0h0a.11.11,0,0,0-.1.08l-.1.4-.095.4a.064.064,0,0,0,.064.082c.163,0,.53.006.751.006.72,0,1.1-.4,1.343-1.547l.285-1.318.267-1.236a.065.065,0,0,0-.066-.081Zm16.9-.309-.038-.157-.037-.161-.019-.081c-.075-.29-.293-.457-.769-.457H22.77a.108.108,0,0,0-.1.082l-.034.16-.04.189-.011.053-.345,1.617L21.91,23.6a.358.358,0,0,0-.007.123c.005.023.094.041.14.041h.692a.434.434,0,0,0,.13-.018c.025-.01.062-.1.071-.146l.123-.608.123-.608h0L23.2,22.3l.149-.7.132-.617a.109.109,0,0,1,.1-.082h2.176A.063.063,0,0,0,25.821,20.821Zm2.8-1.421h-.864a.177.177,0,0,0-.131.069l-1.54,2.257c-.026.038-.056.033-.066-.012l-.113-.5a.11.11,0,0,0-.1-.082h-.99a.06.06,0,0,0-.061.08L25.2,22.77a.369.369,0,0,1,0,.162l-.193.752a.062.062,0,0,0,.063.081h.979a.114.114,0,0,0,.1-.081l.194-.752a.494.494,0,0,1,.071-.148l2.5-3.319c.028-.037.013-.067-.033-.067Zm-7.867,1.947h0a.1.1,0,0,1-.1.087H19.4a.054.054,0,0,1-.059-.066v0h0v0l.006-.021a.787.787,0,0,1,.823-.528C20.69,20.81,20.791,21.063,20.755,21.347ZM20.387,19.9c-1.611,0-1.993.978-2.208,1.966-.214,1.006-.2,1.947,1.472,1.947h.468L21.18,23.8a.109.109,0,0,0,.1-.082l.068-.33.013-.064.08-.394a.066.066,0,0,0-.067-.082h-1.5c-.6,0-.773-.158-.708-.624h2.4a.1.1,0,0,0,.087-.062l.006-.021h0C22.013,20.8,21.911,19.9,20.387,19.9ZM12.77,21.342l-.023.08h0l-.181.641-.181.641a.117.117,0,0,1-.107.081h-.958c-.727,0-.9-.568-.727-1.406.177-.857.524-1.39,1.239-1.444.977-.074,1.173.614.937,1.407Zm.657,1.394a10.74,10.74,0,0,0,.554-1.73,1.753,1.753,0,0,0-1.924-2.077c-1.63,0-2.338,1.174-2.608,2.45s.084,2.413,1.7,2.4l1.279,0,1.2,0a.116.116,0,0,0,.1-.081l.208-.794a.062.062,0,0,0-.063-.082h-.4a.051.051,0,0,1-.057-.059ZM21.5,22a.055.055,0,1,1-.055-.055A.055.055,0,0,1,21.5,22Z" transform="translate(-6.223 -1.283)" fill="#fff" stroke="#0868ac" stroke-width="0.1"/>
</svg>
